<svg width="21" height="25" viewBox="0 0 21 25" fill="none" xmlns="http://www.w3.org/2000/svg">
<path fill-rule="evenodd" clip-rule="evenodd" d="M10.5001 24.2527C10.1106 24.2527 9.73698 24.0979 9.46153 23.8225C9.18609 23.547 9.03135 23.1734 9.03135 22.7839L9.03135 5.76697L2.72747 12.0738C2.59091 12.2103 2.4288 12.3187 2.25037 12.3926C2.07195 12.4665 1.88072 12.5045 1.6876 12.5045C1.49447 12.5045 1.30324 12.4665 1.12482 12.3926C0.946398 12.3187 0.78428 12.2103 0.647721 12.0738C0.511163 11.9372 0.402839 11.7751 0.328934 11.5967C0.255029 11.4183 0.216992 11.227 0.216992 11.0339C0.216992 10.8408 0.255029 10.6495 0.328934 10.4711C0.402839 10.2927 0.511163 10.1306 0.647722 9.99403L9.46022 1.18153C9.59666 1.04475 9.75874 0.936231 9.93717 0.862187C10.1156 0.788143 10.3069 0.75003 10.5001 0.75003C10.6933 0.75003 10.8846 0.788143 11.063 0.862187C11.2415 0.936231 11.4035 1.04475 11.54 1.18153L20.3525 9.99403C20.6283 10.2698 20.7832 10.6439 20.7832 11.0339C20.7832 11.4239 20.6283 11.798 20.3525 12.0738C20.0767 12.3496 19.7026 12.5045 19.3126 12.5045C18.9226 12.5045 18.5485 12.3496 18.2727 12.0738L11.9688 5.76697L11.9688 22.7839C11.9688 23.1734 11.8141 23.547 11.5387 23.8225C11.2632 24.0979 10.8896 24.2527 10.5001 24.2527Z" fill="white"/>
</svg>
