<svg width="24" height="24" viewBox="0 0 24 24" fill="none" xmlns="http://www.w3.org/2000/svg">
<path d="M6.375 7.15625C6.03125 7.15625 5.75 6.7812 5.75 6.32495V2.98755C5.75 2.5313 6.03125 2.15625 6.375 2.15625C6.71875 2.15625 7 2.5313 7 2.98755V6.32495C7 6.7812 6.71875 7.15625 6.375 7.15625Z" fill="#818181"/>
<path d="M12 7.15625C11.6562 7.15625 11.375 6.7812 11.375 6.32495V2.98755C11.375 2.5313 11.6562 2.15625 12 2.15625C12.3438 2.15625 12.625 2.5313 12.625 2.98755V6.32495C12.625 6.7812 12.3438 7.15625 12 7.15625Z" fill="#818181"/>
<path d="M17.625 7.15625C17.2812 7.15625 17 6.7812 17 6.32495V2.98755C17 2.5313 17.2812 2.15625 17.625 2.15625C17.9688 2.15625 18.25 2.5313 18.25 2.98755V6.32495C18.25 6.7812 17.9688 7.15625 17.625 7.15625Z" fill="#818181"/>
<path d="M21.375 8.91879V5.59375C21.375 5.42799 21.3092 5.26907 21.192 5.15186C21.0748 5.03465 20.9158 4.96875 20.75 4.96875H19.5C19.4171 4.96875 19.3377 5.0017 19.2791 5.0603C19.2204 5.11891 19.1875 5.19837 19.1875 5.28125V6.32495C19.2028 6.54399 19.1743 6.76398 19.1038 6.97192C19.0333 7.17987 18.9222 7.37159 18.7769 7.53619C18.6315 7.7009 18.4547 7.83507 18.2569 7.93079C18.0592 8.0265 17.8444 8.0819 17.625 8.09375C17.4056 8.0819 17.1908 8.0265 16.9931 7.93079C16.7953 7.83507 16.6185 7.7009 16.4731 7.53619C16.3278 7.37161 16.2166 7.17987 16.1461 6.97192C16.0756 6.76398 16.0472 6.54399 16.0625 6.32495V5.28125C16.0625 5.19837 16.0296 5.11891 15.9709 5.0603C15.9123 5.0017 15.8329 4.96875 15.75 4.96875H13.875C13.7921 4.96875 13.7127 5.0017 13.6541 5.0603C13.5954 5.11891 13.5625 5.19837 13.5625 5.28125V6.32495C13.5778 6.54399 13.5493 6.76398 13.4788 6.97192C13.4083 7.17987 13.2972 7.37159 13.1519 7.53619C13.0065 7.7009 12.8297 7.83507 12.6319 7.93079C12.4342 8.0265 12.2194 8.0819 12 8.09375C11.7806 8.0819 11.5658 8.0265 11.3681 7.93079C11.1703 7.83507 10.9935 7.7009 10.8481 7.53619C10.7028 7.37161 10.5916 7.17987 10.5211 6.97192C10.4506 6.76398 10.4222 6.54399 10.4375 6.32495V5.28125C10.4375 5.19837 10.4046 5.11891 10.3459 5.0603C10.2873 5.0017 10.2079 4.96875 10.125 4.96875H8.25C8.16712 4.96875 8.08766 5.0017 8.02905 5.0603C7.97045 5.11891 7.9375 5.19837 7.9375 5.28125V6.32495C7.95279 6.54399 7.92438 6.76398 7.85388 6.97192C7.78339 7.17987 7.67223 7.37161 7.52689 7.53619C7.38148 7.7009 7.2047 7.83507 7.00694 7.93079C6.80918 8.0265 6.59439 8.0819 6.375 8.09375C6.15562 8.08187 5.94081 8.0265 5.74306 7.93079C5.5453 7.83507 5.36854 7.70087 5.22311 7.53619C5.07772 7.37152 4.96654 7.17967 4.89604 6.97162C4.82555 6.76356 4.79716 6.54348 4.8125 6.32434V5.28064C4.8125 5.19776 4.77955 5.1183 4.72095 5.05969C4.66234 5.00109 4.58288 4.96814 4.5 4.96814H3.25C3.08424 4.96814 2.92524 5.03403 2.80803 5.15125C2.69082 5.26846 2.625 5.42738 2.625 5.59314V10.4431H21.375V8.91879Z" stroke="#818181" stroke-miterlimit="10"/>
<path d="M2.3125 10.5938V21.2188C2.3125 21.3845 2.37832 21.5434 2.49553 21.6606C2.61274 21.7779 2.77174 21.8438 2.9375 21.8438H21.0625C21.2283 21.8438 21.3873 21.7779 21.5045 21.6606C21.6217 21.5434 21.6875 21.3845 21.6875 21.2188V10.5938H2.3125ZM6.42497 20.2812C6.25921 20.2812 6.10029 20.2154 5.98308 20.0981C5.86587 19.9809 5.79997 19.822 5.79997 19.6562C5.79997 19.4905 5.86587 19.3316 5.98308 19.2144C6.10029 19.0971 6.25921 19.0312 6.42497 19.0312C6.59073 19.0312 6.74973 19.0971 6.86694 19.2144C6.98415 19.3316 7.04997 19.4905 7.04997 19.6562C7.04997 19.822 6.98415 19.9809 6.86694 20.0981C6.74973 20.2154 6.59073 20.2812 6.42497 20.2812ZM6.42497 17.7812C6.25921 17.7812 6.10029 17.7154 5.98308 17.5981C5.86587 17.4809 5.79997 17.322 5.79997 17.1562C5.79997 16.9905 5.86587 16.8316 5.98308 16.7144C6.10029 16.5971 6.25921 16.5312 6.42497 16.5312C6.59073 16.5312 6.74973 16.5971 6.86694 16.7144C6.98415 16.8316 7.04997 16.9905 7.04997 17.1562C7.04997 17.322 6.98415 17.4809 6.86694 17.5981C6.74973 17.7154 6.59073 17.7812 6.42497 17.7812ZM8.92497 20.2812C8.75921 20.2812 8.60029 20.2154 8.48308 20.0981C8.36587 19.9809 8.29997 19.822 8.29997 19.6562C8.29997 19.4905 8.36587 19.3316 8.48308 19.2144C8.60029 19.0971 8.75921 19.0312 8.92497 19.0312C9.09073 19.0312 9.24973 19.0971 9.36694 19.2144C9.48415 19.3316 9.54997 19.4905 9.54997 19.6562C9.54997 19.822 9.48415 19.9809 9.36694 20.0981C9.24973 20.2154 9.09073 20.2812 8.92497 20.2812ZM8.92497 17.7812C8.75921 17.7812 8.60029 17.7154 8.48308 17.5981C8.36587 17.4809 8.29997 17.322 8.29997 17.1562C8.29997 16.9905 8.36587 16.8316 8.48308 16.7144C8.60029 16.5971 8.75921 16.5312 8.92497 16.5312C9.09073 16.5312 9.24973 16.5971 9.36694 16.7144C9.48415 16.8316 9.54997 16.9905 9.54997 17.1562C9.54997 17.322 9.48415 17.4809 9.36694 17.5981C9.24973 17.7154 9.09073 17.7812 8.92497 17.7812ZM11.375 14.0312C11.5408 14.0312 11.6998 14.0971 11.817 14.2144C11.9342 14.3316 12 14.4905 12 14.6562C12 14.822 11.9342 14.9809 11.817 15.0981C11.6998 15.2154 11.5408 15.2812 11.375 15.2812C11.2092 15.2812 11.0502 15.2154 10.933 15.0981C10.8158 14.9809 10.75 14.822 10.75 14.6562C10.75 14.4905 10.8158 14.3316 10.933 14.2144C11.0502 14.0971 11.2092 14.0312 11.375 14.0312ZM11.425 20.2812C11.2592 20.2812 11.1003 20.2154 10.9831 20.0981C10.8659 19.9809 10.8 19.822 10.8 19.6562C10.8 19.4905 10.8659 19.3316 10.9831 19.2144C11.1003 19.0971 11.2592 19.0312 11.425 19.0312C11.5907 19.0312 11.7497 19.0971 11.8669 19.2144C11.9842 19.3316 12.05 19.4905 12.05 19.6562C12.05 19.822 11.9842 19.9809 11.8669 20.0981C11.7497 20.2154 11.5907 20.2812 11.425 20.2812ZM11.425 17.7812C11.2592 17.7812 11.1003 17.7154 10.9831 17.5981C10.8659 17.4809 10.8 17.322 10.8 17.1562C10.8 16.9905 10.8659 16.8316 10.9831 16.7144C11.1003 16.5971 11.2592 16.5312 11.425 16.5312C11.5907 16.5312 11.7497 16.5971 11.8669 16.7144C11.9842 16.8316 12.05 16.9905 12.05 17.1562C12.05 17.322 11.9842 17.4809 11.8669 17.5981C11.7497 17.7154 11.5907 17.7812 11.425 17.7812ZM13.875 14.0312C14.0408 14.0312 14.1998 14.0971 14.317 14.2144C14.4342 14.3316 14.5 14.4905 14.5 14.6562C14.5 14.822 14.4342 14.9809 14.317 15.0981C14.1998 15.2154 14.0408 15.2812 13.875 15.2812C13.7092 15.2812 13.5502 15.2154 13.433 15.0981C13.3158 14.9809 13.25 14.822 13.25 14.6562C13.25 14.4905 13.3158 14.3316 13.433 14.2144C13.5502 14.0971 13.7092 14.0312 13.875 14.0312ZM13.925 17.7812C13.7592 17.7812 13.6003 17.7154 13.4831 17.5981C13.3659 17.4809 13.3 17.322 13.3 17.1562C13.3 16.9905 13.3659 16.8316 13.4831 16.7144C13.6003 16.5971 13.7592 16.5312 13.925 16.5312C14.0907 16.5312 14.2497 16.5971 14.3669 16.7144C14.4842 16.8316 14.55 16.9905 14.55 17.1562C14.55 17.322 14.4842 17.4809 14.3669 17.5981C14.2497 17.7154 14.0907 17.7812 13.925 17.7812ZM16.375 14.0312C16.5408 14.0312 16.6998 14.0971 16.817 14.2144C16.9342 14.3316 17 14.4905 17 14.6562C17 14.822 16.9342 14.9809 16.817 15.0981C16.6998 15.2154 16.5408 15.2812 16.375 15.2812C16.2092 15.2812 16.0502 15.2154 15.933 15.0981C15.8158 14.9809 15.75 14.822 15.75 14.6562C15.75 14.4905 15.8158 14.3316 15.933 14.2144C16.0502 14.0971 16.2092 14.0312 16.375 14.0312ZM16.425 17.7812C16.2592 17.7812 16.1003 17.7154 15.9831 17.5981C15.8659 17.4809 15.8 17.322 15.8 17.1562C15.8 16.9905 15.8659 16.8316 15.9831 16.7144C16.1003 16.5971 16.2592 16.5312 16.425 16.5312C16.5907 16.5312 16.7497 16.5971 16.8669 16.7144C16.9842 16.8316 17.05 16.9905 17.05 17.1562C17.05 17.322 16.9842 17.4809 16.8669 17.5981C16.7497 17.7154 16.5907 17.7812 16.425 17.7812ZM18.875 15.2812C18.7092 15.2812 18.5502 15.2154 18.433 15.0981C18.3158 14.9809 18.25 14.822 18.25 14.6562C18.25 14.4905 18.3158 14.3316 18.433 14.2144C18.5502 14.0971 18.7092 14.0312 18.875 14.0312C19.0408 14.0312 19.1998 14.0971 19.317 14.2144C19.4342 14.3316 19.5 14.4905 19.5 14.6562C19.5 14.822 19.4342 14.9809 19.317 15.0981C19.1998 15.2154 19.0408 15.2812 18.875 15.2812Z" fill="#818181"/>
</svg>
