<svg width="12" height="22" viewBox="0 0 12 22" fill="none" xmlns="http://www.w3.org/2000/svg">
<g clip-path="url(#clip0_683_752)">
<path d="M4.68644 21.972C4.10331 21.9248 3.51769 21.8972 2.94214 21.8275C2.16553 21.7525 1.40362 21.5695 0.678739 21.284C0.576039 21.2542 0.484999 21.1944 0.417335 21.1124C0.349671 21.0304 0.308546 20.9302 0.299592 20.8247C0.213147 19.9921 0.0774805 19.1602 0.0281914 18.326C-0.0884108 16.9333 0.0788806 15.5316 0.520268 14.2039C0.854675 13.2678 1.3036 12.3618 1.68881 11.4384C1.87289 11.0999 1.99648 10.7323 2.05426 10.3523C2.15363 9.15337 1.93263 7.94992 1.41297 6.86217C0.955148 6.041 0.845748 5.07345 1.10935 4.17278C1.51276 2.81324 2.0014 1.4711 2.45562 0.122049C2.47004 0.0864361 2.49522 0.0561284 2.52782 0.0353179C2.56042 0.0145075 2.59864 0.00401709 2.63742 0.00567574H3.17356C3.22316 0.00500889 3.27151 0.022378 3.30944 0.0539815C3.32642 0.0678956 3.33999 0.0853423 3.34906 0.105215C3.35813 0.125088 3.36234 0.146735 3.36165 0.168525C3.32525 0.938232 3.25401 1.70873 3.26538 2.47769C3.28282 3.77353 4.31479 4.66069 5.8435 4.75062C6.42151 4.83082 7.01004 4.71659 7.51449 4.42639C8.01894 4.13619 8.40999 3.68703 8.6249 3.15068C8.72334 2.81368 8.77452 2.46468 8.77671 2.11393C8.82041 1.47126 8.77855 0.82606 8.6523 0.194142C8.64728 0.170648 8.64801 0.146175 8.65489 0.123147C8.66178 0.100118 8.67442 0.0790568 8.69155 0.0620325C8.71102 0.0430542 8.73429 0.0281564 8.75968 0.0181181C8.78507 0.00807993 8.81231 0.00300962 8.83965 0.00348002H9.37949C9.41818 0.00176373 9.4565 0.0120866 9.48909 0.0327563C9.52168 0.0534259 9.54675 0.0836485 9.56129 0.119121C9.98063 1.32877 10.4098 2.53598 10.8094 3.74938C11.0715 4.50284 11.1008 5.31651 10.8931 6.08635C10.8497 6.29263 10.7796 6.49255 10.685 6.68139C10.1769 7.67894 9.91981 8.78285 9.93526 9.89958C9.91726 10.3183 10.0003 10.7353 10.1778 11.116C10.4492 11.6939 10.7088 12.276 10.9742 12.8561C11.4584 13.8803 11.7753 14.974 11.9136 16.0963C12.0738 17.6529 12.0105 19.2242 11.7255 20.7633C11.699 20.8909 11.6398 21.0095 11.5537 21.108C11.4675 21.2065 11.3573 21.2817 11.2334 21.3261C10.4165 21.6238 9.56182 21.8084 8.69377 21.8747C8.17282 21.9309 7.64965 21.9623 7.12794 22.0028" fill="#818181"/>
</g>
<defs>
<clipPath id="clip0_683_752">
<rect width="12" height="22" fill="white"/>
</clipPath>
</defs>
</svg>
