<svg width="23" height="23" viewBox="0 0 23 23" fill="none" xmlns="http://www.w3.org/2000/svg">
<g clip-path="url(#clip0_683_739)">
<path d="M15.4231 8.43079C15.4409 10.3675 14.9676 12.2769 14.0477 13.9795C13.5401 14.9444 12.7797 15.7521 11.8484 16.3155C11.1991 16.6838 10.4751 16.8999 9.73063 16.9472C8.98619 16.9945 8.24075 16.8719 7.55031 16.5887C6.06212 16.0357 4.73327 15.122 3.682 13.9292C2.01876 12.1429 0.876418 9.93269 0.379602 7.53955C0.249579 6.9761 0.230116 6.39272 0.322295 5.82181C0.393136 5.33333 0.621145 4.88131 0.971604 4.53487C1.32206 4.18843 1.77576 3.96644 2.26362 3.90263C2.87903 3.81998 3.49833 3.76962 4.11897 3.75172C4.87115 3.69422 5.63765 3.68703 6.38266 3.57203C7.25948 3.36464 8.08236 2.97275 8.79677 2.42214C9.31383 2.06113 9.84945 1.72755 10.4014 1.42298C10.9887 1.10031 11.6753 1.01064 12.3253 1.1717C12.9754 1.33275 13.5415 1.73277 13.9115 2.29264C14.2602 2.84748 14.5325 3.44707 14.721 4.07512C15.177 5.4821 15.4138 6.95132 15.4231 8.43079ZM8.74663 13.8862C9.56827 13.9028 10.373 13.6505 11.039 13.1674C11.4298 12.9023 11.7494 12.5444 11.9694 12.1256C12.1893 11.7068 12.3028 11.2401 12.2997 10.7667C12.3067 10.7384 12.3067 10.7089 12.2997 10.6806C12.2929 10.6587 12.2809 10.6387 12.2648 10.6225C12.2488 10.6062 12.229 10.5941 12.2073 10.587C12.1856 10.58 12.1625 10.5782 12.1399 10.582C12.1173 10.5857 12.096 10.5949 12.0777 10.6086C12.0583 10.6164 12.0411 10.6287 12.0275 10.6446C11.2597 11.4795 10.2626 12.0674 9.16211 12.3343C8.28919 12.5282 7.38453 12.5282 6.5116 12.3343C6.4864 12.3306 6.46067 12.3334 6.43686 12.3425C6.41304 12.3516 6.39192 12.3665 6.37549 12.386C6.35894 12.4056 6.34762 12.4291 6.3426 12.4543C6.33759 12.4794 6.33905 12.5055 6.34684 12.5299C6.3921 12.6051 6.44235 12.677 6.49727 12.7454C6.76075 13.095 7.10039 13.3796 7.49025 13.5773C7.8801 13.775 8.30984 13.8806 8.74663 13.8862ZM11.612 5.64212C11.157 5.49642 10.6657 5.51408 10.2223 5.69231C10.0203 5.77202 9.8337 5.8863 9.67072 6.0301C9.50968 6.15288 9.38107 6.31338 9.29615 6.49757C9.21123 6.68176 9.17259 6.88418 9.1836 7.08682C9.22658 7.67619 9.60625 8.04992 10.1077 7.95648C10.884 7.81184 11.5731 7.36813 12.0275 6.72025C12.0945 6.63814 12.1405 6.54079 12.1615 6.43686C12.1826 6.33292 12.1782 6.22546 12.1486 6.12363C12.119 6.02178 12.0651 5.92861 11.9916 5.85234C11.918 5.77608 11.8271 5.71892 11.7267 5.68582L11.612 5.64212ZM4.64191 9.23587C5.20942 9.35359 5.79692 9.33133 6.354 9.17112L6.60473 9.08479C6.70454 9.05289 6.79617 8.99955 6.87316 8.92826C6.95015 8.85698 7.01061 8.76952 7.0503 8.67225C7.08983 8.57496 7.10762 8.47027 7.10242 8.36534C7.09723 8.2604 7.06916 8.1578 7.02021 8.06492C6.96172 7.88366 6.86003 7.71947 6.72396 7.58657C6.58789 7.45368 6.42155 7.35608 6.23938 7.3023C5.84536 7.20721 5.43226 7.22947 5.0506 7.36618C4.66893 7.50289 4.33524 7.74816 4.09032 8.07212C4.02097 8.16697 3.97588 8.27752 3.95902 8.39394C3.94216 8.51036 3.95404 8.62906 3.99361 8.7398C4.03327 8.85051 4.0994 8.94974 4.18621 9.02881C4.27301 9.10789 4.37784 9.16446 4.49148 9.19341L4.64191 9.23587Z" fill="#818181"/>
<path d="M17.0133 18.6084C16.3702 18.0964 15.6055 17.7611 14.7942 17.635C13.9829 17.509 13.1529 17.5967 12.3857 17.8897C12.3573 17.8983 12.3271 17.8988 12.2984 17.8911C12.2698 17.8833 12.2439 17.8678 12.2238 17.846C12.2037 17.8243 12.19 17.7972 12.1845 17.7681C12.1789 17.739 12.1816 17.709 12.1922 17.6814C12.389 17.2368 12.7298 16.8719 13.1593 16.6462C13.6291 16.3709 14.1689 16.2393 14.7123 16.2674C15.2556 16.2955 15.779 16.482 16.2181 16.8043C16.5037 16.9869 16.7447 17.2316 16.9233 17.5203C17.1019 17.8089 17.2134 18.1341 17.2497 18.4719C17.2525 18.5002 17.2472 18.5288 17.2345 18.5542C17.2219 18.5796 17.2023 18.6009 17.1781 18.6156C17.1533 18.6298 17.125 18.6367 17.0964 18.6354C17.0679 18.6342 17.0403 18.6248 17.0169 18.6084H17.0133Z" fill="#818181"/>
<path d="M18.661 14.3751C18.1792 14.3323 17.7124 14.1851 17.2927 13.9438C17.2498 13.924 17.209 13.9 17.1709 13.872C16.8844 13.6564 16.6194 13.4265 16.6982 13.0168C16.7479 12.8081 16.8581 12.6188 17.0149 12.473C17.1717 12.3271 17.3681 12.2312 17.5793 12.1973C18.0057 12.1577 18.4332 12.2601 18.7958 12.4888C19.1584 12.7174 19.4357 13.0596 19.5851 13.4623C19.7713 14.0373 19.4418 14.4254 18.661 14.3751Z" fill="#818181"/>
<path d="M16.3327 9.09204C16.9572 9.14136 17.5856 9.0929 18.1953 8.94833C18.7755 8.8477 19.3486 8.73999 19.9288 8.69687C20.5472 8.64822 21.1615 8.83255 21.6516 9.214C22.1417 9.59545 22.4725 10.1465 22.5793 10.7596C22.6618 11.3605 22.6618 11.9699 22.5793 12.5709C22.428 13.9412 22.0655 15.2797 21.5048 16.5384C20.793 18.1876 19.6766 19.6292 18.2597 20.7287C17.4695 21.3559 16.523 21.7535 15.5232 21.8786C14.8406 21.9449 14.1519 21.8559 13.5082 21.6184C12.8645 21.3809 12.2825 21.0009 11.8054 20.5066C11.0695 19.7717 10.4681 18.9126 10.0288 17.9687" stroke="#818181" stroke-linecap="round" stroke-linejoin="round"/>
</g>
<defs>
<clipPath id="clip0_683_739">
<rect width="23" height="23" fill="white"/>
</clipPath>
</defs>
</svg>
