<svg width="30" height="30" viewBox="0 0 30 30" fill="none" xmlns="http://www.w3.org/2000/svg">
<path d="M14.9997 0.833336C12.1978 0.833336 9.4588 1.6642 7.1291 3.22085C4.79941 4.7775 2.98363 6.99003 1.91139 9.57865C0.839146 12.1673 0.558599 15.0157 1.10522 17.7638C1.65185 20.5118 3.00109 23.0361 4.98234 25.0173C6.96358 26.9986 9.48784 28.3478 12.2359 28.8945C14.984 29.4411 17.8324 29.1605 20.421 28.0883C23.0097 27.0161 25.2222 25.2003 26.7788 22.8706C28.3355 20.5409 29.1663 17.8019 29.1663 15C29.1663 13.1396 28.7999 11.2974 28.088 9.57865C27.376 7.85987 26.3325 6.29815 25.017 4.98266C23.7015 3.66716 22.1398 2.62365 20.421 1.91171C18.7023 1.19977 16.8601 0.833336 14.9997 0.833336ZM14.9997 26.3333C12.7582 26.3333 10.567 25.6686 8.70322 24.4233C6.83946 23.178 5.38684 21.408 4.52905 19.3371C3.67125 17.2662 3.44682 14.9874 3.88411 12.789C4.32141 10.5905 5.40081 8.57112 6.9858 6.98613C8.5708 5.40113 10.5902 4.32174 12.7887 3.88444C14.9871 3.44714 17.2659 3.67157 19.3368 4.52937C21.4077 5.38716 23.1777 6.83978 24.423 8.70354C25.6683 10.5673 26.333 12.7585 26.333 15C26.333 18.0058 25.139 20.8885 23.0136 23.0139C20.8881 25.1393 18.0055 26.3333 14.9997 26.3333Z" fill="white"/>
<path d="M18.8396 11.1608C18.7079 11.028 18.5512 10.9227 18.3786 10.8507C18.2059 10.7788 18.0208 10.7418 17.8337 10.7418C17.6467 10.7418 17.4616 10.7788 17.2889 10.8507C17.1163 10.9227 16.9596 11.028 16.8279 11.1608L15.0004 13.0025L13.1729 11.1608C12.9061 10.8941 12.5443 10.7442 12.1671 10.7442C11.7898 10.7442 11.428 10.8941 11.1612 11.1608C10.8945 11.4276 10.7446 11.7894 10.7446 12.1667C10.7446 12.5439 10.8945 12.9057 11.1612 13.1725L13.0029 15L11.1612 16.8275C11.0285 16.9592 10.9231 17.1159 10.8511 17.2885C10.7792 17.4611 10.7422 17.6463 10.7422 17.8333C10.7422 18.0203 10.7792 18.2055 10.8511 18.3781C10.9231 18.5508 11.0285 18.7075 11.1612 18.8392C11.2929 18.9719 11.4496 19.0773 11.6223 19.1493C11.7949 19.2212 11.9801 19.2582 12.1671 19.2582C12.3541 19.2582 12.5393 19.2212 12.7119 19.1493C12.8845 19.0773 13.0412 18.9719 13.1729 18.8392L15.0004 16.9975L16.8279 18.8392C16.9596 18.9719 17.1163 19.0773 17.2889 19.1493C17.4616 19.2212 17.6467 19.2582 17.8337 19.2582C18.0208 19.2582 18.2059 19.2212 18.3786 19.1493C18.5512 19.0773 18.7079 18.9719 18.8396 18.8392C18.9724 18.7075 19.0777 18.5508 19.1497 18.3781C19.2216 18.2055 19.2586 18.0203 19.2586 17.8333C19.2586 17.6463 19.2216 17.4611 19.1497 17.2885C19.0777 17.1159 18.9724 16.9592 18.8396 16.8275L16.9979 15L18.8396 13.1725C18.9724 13.0408 19.0777 12.8841 19.1497 12.7115C19.2216 12.5388 19.2586 12.3537 19.2586 12.1667C19.2586 11.9796 19.2216 11.7945 19.1497 11.6218C19.0777 11.4492 18.9724 11.2925 18.8396 11.1608Z" fill="white"/>
</svg>
