<svg width="24" height="24" viewBox="0 0 24 24" fill="none" xmlns="http://www.w3.org/2000/svg">
<path d="M3.18756 21.9998C3.00222 22.0105 2.81711 21.9754 2.64873 21.8973C2.48035 21.8193 2.33394 21.701 2.22255 21.5528C2.11116 21.4046 2.03827 21.2312 2.01035 21.0481C1.98243 20.8649 2.00037 20.6777 2.06256 20.5032C2.32944 19.6743 2.61319 18.8504 2.89069 18.0247L6.59756 7.00272C6.74131 6.57553 6.81694 6.53427 7.24569 6.7014C9.56186 7.55723 11.6638 8.9055 13.4056 10.6527C15.1475 12.3999 16.4877 14.5044 17.3332 16.82C17.4826 17.2066 17.4419 17.2851 17.0563 17.4136C12.5701 18.9103 8.08318 20.4042 3.59568 21.8951C3.43756 21.9481 3.27443 21.978 3.18756 21.9998ZM7.40694 11.1323C7.40644 11.3525 7.44956 11.5707 7.53383 11.7742C7.6181 11.9778 7.74185 12.1627 7.89796 12.3184C8.05408 12.474 8.23949 12.5974 8.44353 12.6814C8.64758 12.7653 8.86624 12.8081 9.08694 12.8074C9.5327 12.807 9.96031 12.6312 10.277 12.3182C10.5937 12.0052 10.774 11.5803 10.7788 11.1355C10.7775 10.6863 10.5975 10.256 10.2784 9.9391C9.95928 9.62221 9.52715 9.44466 9.07693 9.44549C8.63159 9.44862 8.20571 9.6281 7.89291 9.94443C7.58011 10.2608 7.40599 10.6879 7.40882 11.1323H7.40694ZM10.2513 18.0491C10.4376 18.0522 10.6226 18.0183 10.7955 17.9492C10.9685 17.8802 11.1259 17.7775 11.2587 17.6472C11.3914 17.5168 11.4969 17.3612 11.5688 17.1898C11.6407 17.0183 11.6777 16.8344 11.6776 16.6485C11.6765 16.2827 11.532 15.9318 11.2751 15.6709C11.0181 15.41 10.6691 15.2597 10.3026 15.2522C10.1165 15.2474 9.93126 15.2796 9.75779 15.347C9.58432 15.4144 9.42605 15.5156 9.29222 15.6447C9.15839 15.7738 9.05169 15.9283 8.97834 16.099C8.905 16.2698 8.86649 16.4533 8.86506 16.6391C8.86316 16.8227 8.89759 17.0049 8.96638 17.1752C9.03516 17.3455 9.13694 17.5005 9.26589 17.6315C9.39484 17.7625 9.54841 17.8669 9.71783 17.9386C9.88725 18.0102 10.0692 18.0477 10.2532 18.0491H10.2513ZM14.7394 14.9934C14.7273 14.4973 14.54 14.0214 14.2106 13.6497C13.8811 13.278 13.4307 13.0342 12.9388 12.9615C12.8374 12.9338 12.7314 12.9273 12.6274 12.9423C12.5234 12.9574 12.4236 12.9937 12.3343 13.0489C12.245 13.1042 12.168 13.1772 12.1082 13.2634C12.0485 13.3497 12.0072 13.4474 11.9869 13.5503C11.9244 13.9768 12.1944 14.2842 12.7026 14.3653C12.8826 14.3804 13.0503 14.4628 13.1722 14.5958C13.2941 14.7289 13.3612 14.9029 13.3601 15.0832C13.3582 15.1817 13.3762 15.2794 13.413 15.3708C13.4498 15.4622 13.5047 15.5452 13.5743 15.615C13.6439 15.6848 13.7269 15.74 13.8183 15.7772C13.9097 15.8143 14.0076 15.8329 14.1063 15.8315C14.2048 15.8221 14.3003 15.7923 14.3867 15.7441C14.4732 15.6959 14.5486 15.6303 14.6083 15.5515C14.668 15.4727 14.7106 15.3825 14.7335 15.2864C14.7564 15.1904 14.7591 15.0905 14.7413 14.9934H14.7394ZM5.40193 14.7009C5.39729 15.2318 5.5989 15.7438 5.96444 16.1296C6.0875 16.2739 6.26266 16.3636 6.45181 16.3796C6.64096 16.3956 6.8288 16.3365 6.97444 16.215C7.04621 16.1543 7.10493 16.0796 7.14711 15.9956C7.18928 15.9117 7.21403 15.8201 7.21986 15.7263C7.2257 15.6326 7.21251 15.5385 7.18108 15.45C7.14964 15.3614 7.10062 15.2801 7.03694 15.2109C6.96601 15.1451 6.90943 15.0655 6.87074 14.9769C6.83206 14.8883 6.81209 14.7928 6.81209 14.6962C6.81209 14.5995 6.83206 14.504 6.87074 14.4154C6.90943 14.3268 6.96601 14.2472 7.03694 14.1814C7.1007 14.1122 7.14979 14.0309 7.18128 13.9423C7.21276 13.8538 7.22598 13.7598 7.22014 13.666C7.2143 13.5722 7.18953 13.4806 7.14731 13.3967C7.10508 13.3127 7.04628 13.238 6.97444 13.1773C6.90143 13.1145 6.81638 13.0672 6.72446 13.0382C6.63254 13.0093 6.53568 12.9994 6.43978 13.009C6.34388 13.0186 6.25095 13.0477 6.16664 13.0943C6.08234 13.1409 6.00844 13.2041 5.94944 13.2802C5.59451 13.6694 5.39967 14.1777 5.40381 14.7039L5.40193 14.7009ZM6.64818 18.6429C6.64839 18.3472 6.53203 18.0632 6.32424 17.8524C6.11644 17.6416 5.83388 17.5207 5.53756 17.5159C5.23674 17.5169 4.94837 17.6359 4.73472 17.8472C4.52107 18.0585 4.39929 18.3452 4.39568 18.6453C4.39826 18.941 4.51659 19.2238 4.72539 19.4336C4.9342 19.6433 5.21693 19.7634 5.51319 19.7679C5.6621 19.7703 5.80998 19.743 5.94819 19.6877C6.08639 19.6323 6.21212 19.5499 6.31801 19.4454C6.4239 19.3409 6.50781 19.2164 6.56483 19.0791C6.62185 18.9418 6.65083 18.7945 6.65006 18.6459L6.64818 18.6429Z" fill="#818181"/>
<path d="M8.69547 2C8.86489 2.03795 9.03186 2.08603 9.19547 2.14403C12.0743 3.27667 14.6882 4.98954 16.8735 7.17575C19.0589 9.36196 20.769 11.9745 21.8967 14.85C21.967 14.9943 22.0046 15.1523 22.007 15.3127C22.0093 15.4732 21.9763 15.6322 21.9102 15.7785C21.8441 15.9248 21.7467 16.0548 21.6247 16.1594C21.5027 16.2639 21.3591 16.3404 21.2042 16.3835C20.3642 16.6748 19.5167 16.9498 18.673 17.2273C18.3867 17.3209 18.2936 17.2685 18.1848 16.9679C17.1698 14.1205 15.4631 11.5687 13.2173 9.54088C11.4512 7.93237 9.38391 6.68816 7.13422 5.87961C6.69359 5.71995 6.67047 5.675 6.81609 5.23222C7.07797 4.43833 7.33797 3.64388 7.6036 2.85187C7.67175 2.6128 7.8142 2.40142 8.01042 2.24833C8.20665 2.09523 8.44652 2.00834 8.69547 2Z" fill="#818181"/>
</svg>
