<svg width="20" height="16" viewBox="0 0 20 16" fill="none" xmlns="http://www.w3.org/2000/svg">
<path d="M16.9312 1.74333C15.6562 1.16833 14.2896 0.743332 12.8604 0.501665C12.8477 0.499222 12.8345 0.500796 12.8227 0.506171C12.8109 0.511546 12.8011 0.520455 12.7946 0.531665C12.6196 0.839165 12.4246 1.24 12.2879 1.55667C10.7721 1.3302 9.23115 1.3302 7.7154 1.55667C7.56318 1.20572 7.39152 0.863519 7.20123 0.531665C7.19478 0.520317 7.18503 0.511206 7.17326 0.505548C7.1615 0.49989 7.14829 0.497954 7.1354 0.499998C5.70707 0.741665 4.3404 1.16667 3.06457 1.7425C3.05359 1.7471 3.04429 1.75495 3.0379 1.765C0.444567 5.5775 -0.266266 9.29583 0.0829005 12.9675C0.0838721 12.9765 0.0866635 12.9852 0.0911046 12.9931C0.0955458 13.001 0.101544 13.0078 0.108734 13.0133C1.62239 14.1154 3.31068 14.9548 5.1029 15.4967C5.11539 15.5005 5.12876 15.5005 5.14124 15.4966C5.15373 15.4928 5.16476 15.4852 5.1729 15.475C5.55856 14.9592 5.90031 14.412 6.19457 13.8392C6.19865 13.8313 6.201 13.8227 6.20147 13.8139C6.20193 13.8051 6.2005 13.7963 6.19726 13.788C6.19402 13.7798 6.18905 13.7724 6.18269 13.7663C6.17633 13.7601 6.16873 13.7554 6.1604 13.7525C5.62207 13.5498 5.10047 13.3051 4.6004 13.0208C4.59141 13.0157 4.58384 13.0084 4.57836 12.9996C4.57289 12.9909 4.56967 12.9809 4.56901 12.9705C4.56835 12.9602 4.57026 12.9499 4.57458 12.9405C4.57889 12.9311 4.58548 12.9229 4.59373 12.9167C4.69873 12.8392 4.80373 12.7583 4.90373 12.6775C4.91273 12.6702 4.92358 12.6656 4.93505 12.6641C4.94653 12.6627 4.95819 12.6644 4.96873 12.6692C8.24123 14.1392 11.7854 14.1392 15.0196 12.6692C15.0301 12.6641 15.0419 12.6621 15.0536 12.6635C15.0652 12.6648 15.0762 12.6694 15.0854 12.6767C15.1854 12.7583 15.2896 12.8392 15.3954 12.9167C15.4037 12.9228 15.4104 12.9308 15.4149 12.9402C15.4193 12.9495 15.4214 12.9598 15.4209 12.9701C15.4204 12.9804 15.4174 12.9904 15.412 12.9993C15.4067 13.0082 15.3993 13.0156 15.3904 13.0208C14.8921 13.3075 14.3737 13.55 13.8296 13.7517C13.8212 13.7547 13.8136 13.7595 13.8072 13.7657C13.8009 13.7719 13.7959 13.7794 13.7927 13.7877C13.7894 13.796 13.788 13.8048 13.7885 13.8137C13.789 13.8226 13.7913 13.8313 13.7954 13.8392C14.0954 14.4117 14.4387 14.9567 14.8162 15.4742C14.8241 15.4848 14.835 15.4927 14.8475 15.4969C14.8601 15.5011 14.8736 15.5013 14.8862 15.4975C16.6815 14.9572 18.3726 14.1173 19.8879 13.0133C19.8953 13.0082 19.9015 13.0015 19.9061 12.9937C19.9107 12.986 19.9136 12.9773 19.9146 12.9683C20.3312 8.72333 19.2162 5.035 16.9571 1.76666C16.9515 1.75604 16.9424 1.74776 16.9312 1.74333ZM6.68373 10.7317C5.69873 10.7317 4.88623 9.84083 4.88623 8.74833C4.88623 7.655 5.6829 6.765 6.68373 6.765C7.69207 6.765 8.49707 7.6625 8.48123 8.74833C8.48123 9.84166 7.68457 10.7317 6.68373 10.7317ZM13.3296 10.7317C12.3437 10.7317 11.5321 9.84083 11.5321 8.74833C11.5321 7.655 12.3279 6.765 13.3296 6.765C14.3379 6.765 15.1429 7.6625 15.1271 8.74833C15.1271 9.84166 14.3387 10.7317 13.3296 10.7317Z" fill="white"/>
</svg>
