<svg width="21" height="20" viewBox="0 0 21 20" fill="none" xmlns="http://www.w3.org/2000/svg">
<g clip-path="url(#clip0_773_63)">
<path d="M20.2029 4.11416C19.5071 4.4225 18.7596 4.63083 17.9737 4.725C18.7846 4.23983 19.3912 3.47622 19.6804 2.57666C18.9186 3.02916 18.0849 3.34766 17.2154 3.51833C16.6307 2.89405 15.8563 2.48027 15.0124 2.34123C14.1684 2.20218 13.3022 2.34566 12.5481 2.74938C11.7941 3.15309 11.1944 3.79447 10.8422 4.57392C10.49 5.35337 10.405 6.22729 10.6004 7.06C9.05682 6.98249 7.54677 6.58129 6.16827 5.88242C4.78977 5.18355 3.57362 4.20263 2.59875 3.00333C2.26542 3.57833 2.07375 4.245 2.07375 4.955C2.07338 5.59416 2.23078 6.22353 2.53198 6.78728C2.83319 7.35102 3.26888 7.8317 3.80042 8.18667C3.18398 8.16705 2.58114 8.00048 2.04208 7.70083V7.75083C2.04202 8.64728 2.35211 9.51615 2.91974 10.21C3.48736 10.9038 4.27756 11.3799 5.15625 11.5575C4.5844 11.7123 3.98486 11.7351 3.40292 11.6242C3.65083 12.3955 4.13375 13.07 4.78406 13.5533C5.43437 14.0365 6.21951 14.3043 7.02958 14.3192C5.65444 15.3987 3.95616 15.9842 2.20792 15.9817C1.89823 15.9817 1.58881 15.9637 1.28125 15.9275C3.05581 17.0685 5.12153 17.674 7.23125 17.6717C14.3729 17.6717 18.2771 11.7567 18.2771 6.62666C18.2771 6.46 18.2729 6.29166 18.2654 6.125C19.0248 5.57581 19.6803 4.89574 20.2013 4.11666L20.2029 4.11416Z" fill="white"/>
</g>
<defs>
<clipPath id="clip0_773_63">
<rect width="20" height="20" fill="white" transform="translate(0.5)"/>
</clipPath>
</defs>
</svg>
