<svg width="24" height="24" viewBox="0 0 24 24" fill="none" xmlns="http://www.w3.org/2000/svg">
<path d="M18.9821 14.8044V6.99494L10.2944 8.61058V8.98805C10.2944 12.2319 10.266 15.4756 10.2944 18.7195C10.2942 19.7224 9.95245 20.6928 9.3296 21.4584C8.70674 22.224 7.84324 22.7351 6.89233 22.9012C5.99218 23.1143 5.04816 22.978 4.23787 22.5179C3.95408 22.3537 3.70503 22.1314 3.50586 21.8645C3.30668 21.5977 3.16138 21.2919 3.07869 20.9653C2.9961 20.6385 2.97792 20.2978 3.02509 19.9636C3.07225 19.6293 3.18383 19.3083 3.3532 19.0201C3.65738 18.4457 4.08761 17.954 4.6088 17.585C5.12999 17.216 5.72755 16.9802 6.35287 16.8965C6.89838 16.8406 7.44777 16.8406 7.99327 16.8965H8.25392V5.05311C8.25392 4.40408 8.40153 4.20387 9.01104 4.09165L15.8955 2.81792L20.1229 2.03045C20.2308 1.99741 20.3449 1.99262 20.455 2.01667C20.5651 2.04072 20.6678 2.09283 20.7539 2.16824C20.8398 2.24358 20.9064 2.33994 20.9478 2.44862C20.9892 2.5573 21.0041 2.67489 20.9911 2.791C20.9911 4.366 20.9911 5.92898 20.9911 7.47992V16.5572C20.9896 17.5647 20.6408 18.5382 20.0081 19.3011C19.3755 20.064 18.5008 20.5657 17.5428 20.7152C16.7369 20.8916 15.8975 20.7859 15.1553 20.4146C14.8007 20.2371 14.4916 19.9747 14.2534 19.6489C14.0152 19.3231 13.8546 18.9432 13.7848 18.5404C13.715 18.1374 13.7382 17.7231 13.8523 17.3312C13.9664 16.9393 14.1681 16.5811 14.441 16.2861C14.942 15.6374 15.6074 15.1473 16.362 14.8711C17.1165 14.5948 17.9303 14.5436 18.7114 14.723L18.9821 14.8044Z" fill="#818181"/>
</svg>
