<svg width="19" height="14" viewBox="0 0 19 14" fill="none" xmlns="http://www.w3.org/2000/svg">
<g clip-path="url(#clip0_683_757)">
<path d="M18.406 2.45605H3.69287C3.5354 2.45605 3.38442 2.51937 3.27307 2.63199C3.16172 2.74461 3.09912 2.89731 3.09912 3.05658V11.7343C3.09912 11.8935 3.16172 12.0462 3.27307 12.1588C3.38442 12.2715 3.5354 12.3348 3.69287 12.3348H15.9004L18.1744 13.9682C18.1925 13.9845 18.2149 13.9951 18.2388 13.9987C18.2627 14.0023 18.2873 13.9988 18.3093 13.9886C18.3313 13.9784 18.3499 13.962 18.3629 13.9414C18.3759 13.9207 18.3826 13.8965 18.3822 13.872L17.6638 12.3348H18.406C18.5635 12.3348 18.7145 12.2715 18.8259 12.1588C18.9372 12.0462 18.9998 11.8935 18.9998 11.7343V3.05658C18.9998 2.89731 18.9372 2.74461 18.8259 2.63199C18.7145 2.51937 18.5635 2.45605 18.406 2.45605ZM17.177 8.34722C17.1779 8.46978 17.1546 8.59126 17.1086 8.70466C17.0627 8.81807 16.9949 8.92119 16.9092 9.00786C16.8235 9.0945 16.7216 9.16296 16.6095 9.20945C16.4974 9.25594 16.3772 9.2795 16.2561 9.27865H9.49976C9.37858 9.27956 9.25841 9.25609 9.14628 9.2096C9.03415 9.1631 8.93232 9.09455 8.84665 9.00786C8.76094 8.92121 8.69309 8.81807 8.64712 8.70466C8.60115 8.59126 8.57794 8.46979 8.57884 8.34722C8.57884 8.10036 8.6758 7.86364 8.84839 7.68908C9.02098 7.51452 9.2551 7.41638 9.49918 7.41638H16.2382C16.4823 7.41638 16.7164 7.51452 16.889 7.68908C17.0616 7.86364 17.1586 8.10036 17.1586 8.34722H17.177ZM17.177 5.24858C17.1779 5.37114 17.1546 5.49261 17.1086 5.60602C17.0627 5.71942 16.9949 5.8224 16.9092 5.90906C16.8235 5.9957 16.7216 6.06431 16.6095 6.1108C16.4974 6.15729 16.3772 6.18085 16.2561 6.18H5.84166C5.72048 6.18092 5.60031 6.15745 5.48818 6.11095C5.37605 6.06445 5.27422 5.99576 5.18855 5.90906C5.10284 5.82242 5.03499 5.71942 4.98902 5.60602C4.94305 5.49261 4.91984 5.37114 4.92074 5.24858C4.91987 5.12602 4.94312 5.00454 4.98909 4.89114C5.03506 4.77773 5.10287 4.67461 5.18855 4.58794C5.27424 4.50128 5.37613 4.4327 5.48825 4.3862C5.60038 4.33971 5.72048 4.31627 5.84166 4.31715H16.2561C16.3772 4.3163 16.4974 4.33986 16.6095 4.38635C16.7216 4.43284 16.8235 4.5013 16.9092 4.58794C16.9949 4.67459 17.0627 4.77758 17.1087 4.89099C17.1547 5.0044 17.1779 5.12601 17.177 5.24858Z" fill="#818181"/>
<path d="M3.67528 1.85565H15.9362V0.600645C15.9362 0.441377 15.8737 0.28853 15.7624 0.17591C15.651 0.0632901 15.5 0.00012207 15.3425 0.00012207H0.59375C0.436278 0.00012207 0.285227 0.0632901 0.173878 0.17591C0.062528 0.28853 0 0.441377 0 0.600645V9.2902C0 9.44947 0.062528 9.60217 0.173878 9.71479C0.285227 9.82741 0.436278 9.89072 0.59375 9.89072H1.32999L0.617523 11.4281C0.611578 11.4558 0.611578 11.4844 0.617523 11.5121C0.640718 11.5345 0.671563 11.547 0.703629 11.547C0.735694 11.547 0.766466 11.5345 0.789661 11.5121L2.43436 10.3111V3.04467C2.44673 2.72183 2.58349 2.41681 2.81538 2.19461C3.04728 1.97242 3.35588 1.8507 3.67528 1.85565Z" fill="#818181"/>
</g>
<defs>
<clipPath id="clip0_683_757">
<rect width="19" height="14" fill="white"/>
</clipPath>
</defs>
</svg>
