<svg width="44" height="44" viewBox="0 0 44 44" fill="none" xmlns="http://www.w3.org/2000/svg">
<g opacity="0.7" clip-path="url(#clip0_1_53)">
<path d="M21.7776 12V32.9105M15.8888 16.5345V28.376M33.5551 19.8414V25.069M10 19.8414V25.069M27.6663 15.9207V28.376" stroke="white" stroke-width="3" stroke-linecap="round" stroke-linejoin="round"/>
<path d="M22 41.25C16.8946 41.25 11.9983 39.2219 8.38819 35.6118C4.77812 32.0017 2.75 27.1054 2.75 22C2.75 16.8946 4.77812 11.9983 8.38819 8.38819C11.9983 4.77812 16.8946 2.75 22 2.75C27.1054 2.75 32.0017 4.77812 35.6118 8.38819C39.2219 11.9983 41.25 16.8946 41.25 22C41.25 27.1054 39.2219 32.0017 35.6118 35.6118C32.0017 39.2219 27.1054 41.25 22 41.25ZM22 44C27.8348 44 33.4305 41.6822 37.5564 37.5564C41.6822 33.4305 44 27.8348 44 22C44 16.1652 41.6822 10.5695 37.5564 6.44365C33.4305 2.31785 27.8348 0 22 0C16.1652 0 10.5695 2.31785 6.44365 6.44365C2.31785 10.5695 0 16.1652 0 22C0 27.8348 2.31785 33.4305 6.44365 37.5564C10.5695 41.6822 16.1652 44 22 44Z" fill="white"/>
</g>
<defs>
<clipPath id="clip0_1_53">
<rect width="44" height="44" fill="white"/>
</clipPath>
</defs>
</svg>
